<svg xmlns="http://www.w3.org/2000/svg" viewBox="0 0 93.2 116.6" width="32"><path fill="currentColor" d="M7.9 96.6c-.3 0-.7-.1-.9-.3-.5-.5-.5-1.3 0-1.8l34.9-34.9H21.3c-.5 0-1-.3-1.2-.8-.2-.5-.1-1 .3-1.3l40.2-40.2c.5-.5 1.3-.5 1.8 0s.5 1.3 0 1.8l-37.9 38H45c.5 0 1 .3 1.2.8.2.5.1 1-.3 1.3l-37 37c-.4.3-.7.4-1 .4z"/><path fill="currentColor" d="M92.8 2.1c.5-.5.5-1.3 0-1.8s-1.3-.5-1.8 0L40.6 50.8c-.3.3-.5.9-.3 1.3.2.5.7.8 1.2.8H62L.4 114.5c-.5.5-.5 1.3 0 1.8.3.3.6.3.9.3s.7-.1.9-.3L66 52.5c.3-.3.5-.9.3-1.3-.2-.5-.7-.8-1.2-.8H58l31.2-31.2c.5-.5.5-1.3 0-1.8s-1.3-.5-1.8 0l-33.2 33h-9.8L92.8 2.1zM34.7 96.6c-.3 0-.7-.1-.9-.3-.5-.5-.5-1.3 0-1.8L64 64.3c.5-.5 1.3-.5 1.8 0s.5 1.3 0 1.8L35.6 96.2c-.2.3-.5.4-.9.4z"/></svg>